<svg xmlns="http://www.w3.org/2000/svg" xmlns:xlink="http://www.w3.org/1999/xlink" width="160" height="160" viewBox="0 0 160 160">
  <defs>
    <filter id="Rectangle_180" x="0" y="0" width="160" height="160" filterUnits="userSpaceOnUse">
      <feOffset dy="10" input="SourceAlpha"/>
      <feGaussianBlur stdDeviation="10" result="blur"/>
      <feFlood flood-opacity="0.161"/>
      <feComposite operator="in" in2="blur"/>
      <feComposite in="SourceGraphic"/>
    </filter>
  </defs>
  <g id="Group_211" data-name="Group 211" transform="translate(-1147 -3544)">
    <g transform="matrix(1, 0, 0, 1, 1147, 3544)" filter="url(#Rectangle_180)">
      <rect id="Rectangle_180-2" data-name="Rectangle 180" width="100" height="100" rx="10" transform="translate(30 20)" fill="#4fd3fa"/>
    </g>
    <path id="Icon_awesome-hand-holding-usd" data-name="Icon awesome-hand-holding-usd" d="M23.677,13.263l4.6,1.314a.773.773,0,0,1-.211,1.517H25.046a2.364,2.364,0,0,1-.947-.2,1.139,1.139,0,0,0-1.3.184L21.2,17.684a1.1,1.1,0,0,0,.138,1.691,6.716,6.716,0,0,0,2.923,1.057v1.627a1.475,1.475,0,0,0,1.471,1.471H27.2a1.475,1.475,0,0,0,1.471-1.471V20.441A5.171,5.171,0,0,0,33.2,14.651a5.393,5.393,0,0,0-3.943-4.384l-4.6-1.314a.773.773,0,0,1,.211-1.517h3.015a2.365,2.365,0,0,1,.947.2,1.139,1.139,0,0,0,1.3-.184l1.608-1.608A1.1,1.1,0,0,0,31.6,4.154,6.716,6.716,0,0,0,28.677,3.1V1.471A1.475,1.475,0,0,0,27.206,0H25.736a1.475,1.475,0,0,0-1.471,1.471V3.088a5.171,5.171,0,0,0-4.531,5.791A5.393,5.393,0,0,0,23.677,13.263Zm25.4,16.894a2.76,2.76,0,0,0-3.7,0l-8.015,6.792a5.346,5.346,0,0,1-3.474,1.287H23.612a1.473,1.473,0,0,1,0-2.941H30.4a2.943,2.943,0,0,0,.147-5.882H16.664a9.827,9.827,0,0,0-6.425,2.417L6.2,35.295H1.388A1.436,1.436,0,0,0,0,36.765v8.824a1.436,1.436,0,0,0,1.388,1.471H32.353a5.382,5.382,0,0,0,3.474-1.287L48.953,34.651a3.054,3.054,0,0,0,.119-4.495Z" transform="translate(1202 3590)" fill="#faf9fe"/>
  </g>
</svg>
