<svg xmlns="http://www.w3.org/2000/svg" width="72.644" height="60.885" viewBox="0 0 72.644 60.885">
  <g id="Group_214" data-name="Group 214" transform="translate(-1034.052 -1411.837)">
    <g id="Group_199" data-name="Group 199" transform="translate(1045.052 1411.837)" opacity="0.55">
      <path id="Path_23" data-name="Path 23" d="M601.5,57.979l-8.511-4.914a.333.333,0,0,0-.5.289v9.828a.333.333,0,0,0,.5.289l8.511-4.914A.333.333,0,0,0,601.5,57.979Z" transform="translate(-566.253 -39.668)" fill="#ff9382"/>
      <rect id="Rectangle_94" data-name="Rectangle 94" width="61.644" height="37.199" rx="2.9" fill="#ff9382"/>
    </g>
    <g id="Group_196" data-name="Group 196" transform="translate(-424 157)">
      <g id="Group_173" data-name="Group 173" transform="translate(1459.052 1264.837)">
        <g id="Group_82" data-name="Group 82">
          <path id="Path_23-2" data-name="Path 23" d="M601.5,57.979l-8.511-4.914a.333.333,0,0,0-.5.289v9.828a.333.333,0,0,0,.5.289l8.511-4.914A.333.333,0,0,0,601.5,57.979Z" transform="translate(-566.253 -39.668)" fill="none" stroke="#ff9382" stroke-miterlimit="10" stroke-width="2"/>
          <rect id="Rectangle_94-2" data-name="Rectangle 94" width="61.644" height="37.199" rx="2.9" fill="none" stroke="#ff9382" stroke-miterlimit="10" stroke-width="2"/>
        </g>
        <g id="Group_83" data-name="Group 83" transform="translate(23.582 37.199)">
          <rect id="Rectangle_95" data-name="Rectangle 95" width="6.643" height="5.447" transform="translate(3.918)" fill="none" stroke="#ff9382" stroke-linecap="round" stroke-linejoin="round" stroke-miterlimit="10" stroke-width="2"/>
          <path id="Path_24" data-name="Path 24" d="M603.972,86.1a7.24,7.24,0,0,1-14.479,0Z" transform="translate(-589.493 -80.648)" fill="none" stroke="#ff9382" stroke-linecap="round" stroke-linejoin="round" stroke-miterlimit="10" stroke-width="2"/>
        </g>
      </g>
    </g>
  </g>
</svg>
