<svg xmlns="http://www.w3.org/2000/svg" width="130.747" height="61.558" viewBox="0 0 130.747 61.558">
  <path id="Path_98" data-name="Path 98" d="M571.051,247.4s19.608-1.6,30.812,6.8L618.871,267s3.2,1.6,4.8,1,3.8-1.2,4.4-2.2c.3-.494-6.453-6.967-13.606-11a60.946,60.946,0,0,0-15.006-5.8s-14.4-3.8-28.411-2.8v1.2Zm62.024,14.8s-2.4,2-5.8-.4-25.41-18.607-30.411-20.008a37.9,37.9,0,0,0-14.205-3.8c-7.8-.4-16.407-.4-16.407-.4l-1.2-1s15.805,0,24.409,1,16.807,2.8,22.608,5.6S635.875,260,635.875,260s-2,1.6-2.8,2.2Zm-73.027-34.413s29.811-2.2,41.015,5S632.675,255.2,632.675,255.2s6.8,3.8,9.6.2c0,0,1.8-1.2.2-2.2s-26.01-19.408-34.614-22.208-25.208-5.8-48.219-4.6l.4,1.4Zm-6-10-.6-1s25.209-.4,38.815.6,26.41,7.8,26.41,7.8l31.413,22.409,1,1.6c-1.4,2.2-5.6,2.4-7,2.2s-24.409-17.206-38.415-26.409-51.62-7.2-51.62-7.2Zm-6.4-11.2,1,1.6h32.411s15.408-.8,29.212,8.4c14.005,9,37.415,28.412,41.016,29.412s6-1.2,7.2-2.2a2.164,2.164,0,0,0-.8-1.6c-.8-.6-29.812-21.607-29.812-21.607s-14.205-11.605-29.412-12.806-50.819-1.2-50.819-1.2ZM677.093,234.99c-1.8-1.2-8.2-1.8-8.2-1.8s-1.4-.4-1.4-1.6a2.309,2.309,0,0,0-2.8-2.2c-1.8.2-16.205,2.2-21.808-2.2,0,0,5.2,6,10.2,9.2a44.837,44.837,0,0,1,6.8,5,5.1,5.1,0,0,0,2.6-.4c1.4-.6,10.2-5,15.806-.6,0,0,.6-4.2-1.2-5.4Zm-12.2-2a5.018,5.018,0,0,0-3.4-.2c1.4,1.2,4.8,1,3.4.2Z" transform="translate(-547.642 -206.579)" fill="#dcdcdc" fill-rule="evenodd"/>
</svg>
