<svg xmlns="http://www.w3.org/2000/svg" width="162.596" height="62.624" viewBox="0 0 162.596 62.624">
  <path id="Path_99" data-name="Path 99" d="M695.783,448.621V428.893h4.046v16.953a23.978,23.978,0,0,0-4.046,2.775m-7.027,5.934a32.73,32.73,0,0,1,4.045-4.273V428.893h-4.045Zm-46.864,15.677a20.157,20.157,0,0,0,19.985,19.985,14.624,14.624,0,0,0,6.149-1.279V484.9a16.749,16.749,0,0,1-6.149,1.269,16.152,16.152,0,0,1-15.94-15.934v-3.649a16.155,16.155,0,0,1,15.94-15.939,15.834,15.834,0,0,1,15.939,15.939v23.634h4.048V465.8a20.164,20.164,0,0,0-6.2-13.594,19.989,19.989,0,0,0-33.774,14.372Zm60.563-9.682A9.431,9.431,0,0,1,709,457.675a8.815,8.815,0,0,1,8.911,8.907v3.649a8.818,8.818,0,0,1-8.911,8.91,8.431,8.431,0,0,1-6.585-3.733,14.567,14.567,0,0,1-2.834-7.579l-3.281,4a15.326,15.326,0,0,0,4.506,8.058,12.241,12.241,0,0,0,8.195,3.3,12.972,12.972,0,0,0,12.963-12.957v-3.649A13.184,13.184,0,0,0,709,453.622c-2.139,0-5.541.77-9.595,4.416l-.015.013c-1.086,1.085-3.634,3.635-5.182,5.449-2.609,2.848-6.393,7.134-9.621,11.434v6.32c3.579-4.6,5.642-7.177,9.008-11.063a120.935,120.935,0,0,1,8.859-9.642m-95.57-7.629v-4.785c-3.658-1.965-7.657-2.842-12.956-2.842a21.236,21.236,0,0,0-14.439,5.581,18.107,18.107,0,0,0-6.068,13.364v1.308a18.837,18.837,0,0,0,18.685,18.942c8.381,0,11.821-2.741,12.7-3.606V468.725h-13.68v4.047h9.895v6.091l-.036.009a21.924,21.924,0,0,1-8.875,1.569,14.453,14.453,0,0,1-10.359-4.315,14.928,14.928,0,0,1-4.277-10.579v-1.308c0-8.071,7.536-14.893,16.459-14.893,6.172,0,9.821,1,12.956,3.576m29.48,4.755a8.872,8.872,0,0,1,3.875.758,23.845,23.845,0,0,1,1.776-3.55c-1.1-.79-3.722-1.262-5.651-1.262a12.676,12.676,0,0,0-12.956,12.961v23.634h4.046V466.583a8.523,8.523,0,0,1,8.911-8.907m-69.974,6.562v1.308a25.957,25.957,0,0,0,7.5,18.437,25.458,25.458,0,0,0,18.215,7.534,28.214,28.214,0,0,0,14.647-3.732,17.364,17.364,0,0,0,5.083-4.3V461.694H591.123v4.052h16.661v16.484l-.016.016c-1.952,1.952-6.58,5.225-15.662,5.225a21.415,21.415,0,0,1-15.431-6.363,21.972,21.972,0,0,1-6.235-15.561v-1.308a21.337,21.337,0,0,1,6.947-15.367,24.1,24.1,0,0,1,16.541-6.556c5.743,0,9.747.87,12.956,2.819v-4.547c-3.343-1.423-7.344-2.061-12.956-2.061-14.926,0-27.538,11.776-27.538,25.712m108.447,25.979V466.583a12.96,12.96,0,0,0-25.918,0v3.649a13.138,13.138,0,0,0,12.958,12.957,10.33,10.33,0,0,0,6.149-1.793v-4.275a10.064,10.064,0,0,1-6.149,2.02,8.818,8.818,0,0,1-8.91-8.91v-3.649a8.911,8.911,0,0,1,17.822,0v23.634Zm-38.473-39.573a14.377,14.377,0,0,1,7.277,1.806,36.071,36.071,0,0,1,2.787-3.041c-2.272-1.737-6.117-2.814-10.064-2.814a19.366,19.366,0,0,0-19.986,19.988v23.634h4.043V466.583c0-9.384,6.559-15.939,15.943-15.939m86.72,1.859A19.829,19.829,0,0,0,709,446.595a19.219,19.219,0,0,0-9.861,2.856c-4.4,2.933-8.029,6.122-14.551,14.547v6.056c5.535-7.207,10.77-12.888,14.745-16.014a15.814,15.814,0,0,1,25.607,12.542v3.649A15.994,15.994,0,0,1,709,486.166a15.581,15.581,0,0,1-15.044-11.525L691.1,478.1c2.078,6.973,9.6,12.117,17.9,12.117a20.152,20.152,0,0,0,19.986-19.985v-3.649a19.822,19.822,0,0,0-5.9-14.08" transform="translate(-566.391 -428.893)" fill="#dcdcdc"/>
</svg>
