<svg xmlns="http://www.w3.org/2000/svg" width="82.496" height="66.11" viewBox="0 0 82.496 66.11">
  <g id="Group_217" data-name="Group 217" transform="translate(-599.383 -1911.594)">
    <g id="Group_201" data-name="Group 201" transform="translate(610.549 1905.022)" opacity="0.55">
      <g id="Group_94" data-name="Group 94">
        <rect id="Rectangle_105" data-name="Rectangle 105" width="71.33" height="43.044" rx="2.9" transform="translate(0 6.572)" fill="#ffbb56"/>
      </g>
    </g>
    <g id="Group_192" data-name="Group 192" transform="translate(-858 -98)">
      <g id="Group_175" data-name="Group 175" transform="translate(1458.383 2024.294)">
        <path id="Path_40" data-name="Path 40" d="M465.675,207.5l-6.06.363,4.312,5.451Z" transform="translate(-415.254 -205.263)" fill="#ffbb56"/>
        <g id="Group_100" data-name="Group 100">
          <g id="Group_99" data-name="Group 99" transform="translate(23.83 37.59)">
            <rect id="Rectangle_111" data-name="Rectangle 111" width="6.713" height="5.504" transform="translate(3.96)" fill="none" stroke="#ffbb56" stroke-miterlimit="10" stroke-width="2"/>
            <path id="Path_41" data-name="Path 41" d="M451.307,253.15a7.316,7.316,0,1,1-14.632,0Z" transform="translate(-436.676 -247.646)" fill="none" stroke="#ffbb56" stroke-miterlimit="10" stroke-width="2"/>
          </g>
          <rect id="Rectangle_112" data-name="Rectangle 112" width="62.292" height="37.59" rx="2.9" fill="none" stroke="#ffbb56" stroke-miterlimit="10" stroke-width="2"/>
        </g>
        <rect id="Rectangle_113" data-name="Rectangle 113" width="2.417" height="14.613" rx="0.6" transform="translate(13.694 22.711)" fill="#ffbb56"/>
        <rect id="Rectangle_114" data-name="Rectangle 114" width="2.417" height="9.78" rx="0.6" transform="translate(24.523 27.544)" fill="#ffbb56"/>
        <rect id="Rectangle_115" data-name="Rectangle 115" width="2.417" height="16.896" rx="0.6" transform="translate(35.353 20.428)" fill="#ffbb56"/>
        <rect id="Rectangle_116" data-name="Rectangle 116" width="2.417" height="25.89" rx="0.6" transform="translate(46.182 11.434)" fill="#ffbb56"/>
        <path id="Path_42" data-name="Path 42" d="M415.9,231.794l9.263-6.981,10.4,5.84,21.95-20" transform="translate(-410.664 -205.593)" fill="none" stroke="#ffbb56" stroke-linecap="round" stroke-linejoin="round" stroke-width="2"/>
      </g>
    </g>
  </g>
</svg>
