<svg xmlns="http://www.w3.org/2000/svg" width="70" height="70" viewBox="0 0 70 70">
  <g id="Group_221" data-name="Group 221" transform="translate(-760 -4582)">
    <rect id="Rectangle_181" data-name="Rectangle 181" width="70" height="70" rx="6" transform="translate(760 4582)" fill="#e5e1f8"/>
    <path id="Icon_awesome-chart-area" data-name="Icon awesome-chart-area" d="M35.156,27a.846.846,0,0,1,.844.844v2.813a.846.846,0,0,1-.844.844H.844A.846.846,0,0,1,0,30.656V5.344A.846.846,0,0,1,.844,4.5H3.656a.846.846,0,0,1,.844.844V27ZM26.205,11.215,20.25,15.188l-6-7.995a.845.845,0,0,0-1.4.07L6.75,17.438V24.75h27l-6.321-13.2a.844.844,0,0,0-1.223-.33Z" transform="translate(776.6 4599)" fill="#633bfb"/>
  </g>
</svg>
