<svg xmlns="http://www.w3.org/2000/svg" width="272.42" height="37" viewBox="0 0 272.42 37">
  <g id="Group_180" data-name="Group 180" transform="translate(-71.58 -51)">
    <g id="Group_1" data-name="Group 1">
      <path id="Subtraction_3" data-name="Subtraction 3" d="M16.358,21.442h0a5.9,5.9,0,0,1-2.725-1.872h4.392a17.967,17.967,0,0,1-1.665,1.872Zm3.6-4.872H11.906a15.759,15.759,0,0,1-.859-4.521A15.023,15.023,0,0,1,11.685,6.7,13.783,13.783,0,0,1,13.532,2.94,12.1,12.1,0,0,1,16.358,0c.09.071,2.2,1.8,4.534,8.292.908,2.529.6,5.314-.929,8.278Z" transform="translate(72 58.43)" fill="#633bfb"/>
      <path id="Subtraction_1" data-name="Subtraction 1" d="M11.76,42H3.08V37H6.72v2h5.04a12.1,12.1,0,0,0,7.228-2h4.8C21.215,40.272,17.055,42,11.76,42ZM6.72,34H3.08V14.12H11.76c4.491,0,8.238,1.3,10.835,3.76A13.664,13.664,0,0,1,26.56,28.12,15.778,15.778,0,0,1,25.509,34H21.566A12.619,12.619,0,0,0,22.84,28.12C22.84,21.1,18.8,17.08,11.76,17.08H6.72V34Z" transform="translate(69 41)" fill="#faf9fe" stroke="rgba(0,0,0,0)" stroke-miterlimit="10" stroke-width="1"/>
      <path id="Subtraction_2" data-name="Subtraction 2" d="M32.92,42H24.24c-5.3,0-9.455-1.729-12.028-5h4.8a12.1,12.1,0,0,0,7.228,2h5.04V37h3.64v5ZM14.435,34H10.491A15.776,15.776,0,0,1,9.44,28.12a13.664,13.664,0,0,1,3.965-10.24c2.6-2.46,6.344-3.76,10.835-3.76H32.92V34H29.28V17.08H24.24C17.2,17.08,13.16,21.1,13.16,28.12A12.619,12.619,0,0,0,14.434,34Z" transform="translate(72 41)" fill="#faf9fe" stroke="rgba(0,0,0,0)" stroke-miterlimit="10" stroke-width="1"/>
    </g>
    <text id="Digital_Marketing" data-name="Digital Marketing" transform="translate(108 79)" fill="#faf9fe" font-size="27" font-family="Poppins-SemiBold, Poppins" font-weight="600"><tspan x="0" y="0">Digital Marketing</tspan></text>
  </g>
</svg>
