<svg xmlns="http://www.w3.org/2000/svg" width="50" height="50" viewBox="0 0 50 50">
  <g id="Group_228" data-name="Group 228" transform="translate(-269 -6177)">
    <path id="Icon_awesome-instagram" data-name="Icon awesome-instagram" d="M10.251,7.233a5.257,5.257,0,1,0,5.257,5.257A5.249,5.249,0,0,0,10.251,7.233Zm0,8.675a3.418,3.418,0,1,1,3.418-3.418,3.424,3.424,0,0,1-3.418,3.418Zm6.7-8.89a1.226,1.226,0,1,1-1.226-1.226A1.223,1.223,0,0,1,16.95,7.018Zm3.482,1.244a6.068,6.068,0,0,0-1.656-4.3,6.108,6.108,0,0,0-4.3-1.656c-1.693-.1-6.767-.1-8.46,0a6.1,6.1,0,0,0-4.3,1.652,6.088,6.088,0,0,0-1.656,4.3c-.1,1.693-.1,6.767,0,8.46a6.068,6.068,0,0,0,1.656,4.3,6.116,6.116,0,0,0,4.3,1.656c1.693.1,6.767.1,8.46,0a6.068,6.068,0,0,0,4.3-1.656,6.108,6.108,0,0,0,1.656-4.3c.1-1.693.1-6.762,0-8.455ZM18.245,18.534A3.46,3.46,0,0,1,16.3,20.483c-1.35.535-4.552.412-6.044.412s-4.7.119-6.044-.412a3.46,3.46,0,0,1-1.949-1.949c-.535-1.35-.412-4.552-.412-6.044s-.119-4.7.412-6.044A3.46,3.46,0,0,1,4.207,4.5c1.35-.535,4.552-.412,6.044-.412s4.7-.119,6.044.412a3.46,3.46,0,0,1,1.949,1.949c.535,1.35.412,4.552.412,6.044S18.78,17.189,18.245,18.534Z" transform="translate(284.07 6189.51)" fill="#ffbb56"/>
    <g id="Ellipse_17" data-name="Ellipse 17" transform="translate(269 6177)" fill="none" stroke="#faf9fe" stroke-width="5">
      <circle cx="25" cy="25" r="25" stroke="none"/>
      <circle cx="25" cy="25" r="22.5" fill="none"/>
    </g>
  </g>
</svg>
