<svg xmlns="http://www.w3.org/2000/svg" width="50" height="50" viewBox="0 0 50 50">
  <g id="Group_229" data-name="Group 229" transform="translate(-349 -6177)">
    <path id="Icon_awesome-linkedin-in" data-name="Icon awesome-linkedin-in" d="M4.253,19H.314V6.315H4.253ZM2.281,4.585a2.292,2.292,0,1,1,2.281-2.3A2.3,2.3,0,0,1,2.281,4.585ZM19,19H15.065V12.825c0-1.472-.03-3.359-2.048-3.359-2.048,0-2.362,1.6-2.362,3.253V19H6.72V6.315H10.5v1.73h.055A4.139,4.139,0,0,1,14.281,6C18.267,6,19,8.622,19,12.032V19Z" transform="translate(364.474 6192.343)" fill="#ff9382"/>
    <g id="Ellipse_18" data-name="Ellipse 18" transform="translate(349 6177)" fill="none" stroke="#faf9fe" stroke-width="5">
      <circle cx="25" cy="25" r="25" stroke="none"/>
      <circle cx="25" cy="25" r="22.5" fill="none"/>
    </g>
  </g>
</svg>
