<svg xmlns="http://www.w3.org/2000/svg" width="64.177" height="55.995" viewBox="0 0 64.177 55.995">
  <g id="Group_219" data-name="Group 219" transform="translate(-1471.823 -1913.034)">
    <rect id="Rectangle_176" data-name="Rectangle 176" width="53" height="32" rx="3" transform="translate(1483 1926)" fill="#a9f" opacity="0.55"/>
    <g id="Group_194" data-name="Group 194" transform="translate(539 -953)">
      <g id="Group_170" data-name="Group 170" transform="translate(933.824 2866.576)">
        <text id="_" data-name="$" transform="translate(21.858 19.068)" fill="#a9f" font-size="12" font-family="Poppins-SemiBold, Poppins" font-weight="600" letter-spacing="0.03em"><tspan x="0" y="0">$</tspan></text>
        <path id="Path_27" data-name="Path 27" d="M633.385,207.149v26.83a2.137,2.137,0,0,1-.689,1.571.429.429,0,0,0-.1-.141l-16.372-14.845L607.867,213a.409.409,0,0,0-.548,0l-8.331,7.552-16.394,14.86a.431.431,0,0,0-.1.141,2.137,2.137,0,0,1-.689-1.571v-26.83a2.139,2.139,0,0,1,.712-1.593,2.108,2.108,0,0,1,1.438-.556h47.286a2.092,2.092,0,0,1,1.468.586A2.115,2.115,0,0,1,633.385,207.149Z" transform="translate(-581.8 -181.74)" fill="none" stroke="#a9f" stroke-miterlimit="10" stroke-width="2"/>
        <path id="Path_28" data-name="Path 28" d="M632.936,238.307a2.114,2.114,0,0,1-1.46.578H584.19a2.114,2.114,0,0,1-1.46-.578.429.429,0,0,1,.1-.141l16.394-14.86,8.331-7.552a.409.409,0,0,1,.549,0l8.353,7.567,16.372,14.845A.429.429,0,0,1,632.936,238.307Z" transform="translate(-582.041 -184.496)" fill="none" stroke="#a9f" stroke-miterlimit="10" stroke-width="1"/>
        <path id="Path_31" data-name="Path 31" d="M632.939,197.463a.328.328,0,0,1-.089.111l-16.395,14.868-8.353-7.567a.409.409,0,0,0-.548,0l-8.331,7.552-16.38-14.853a.343.343,0,0,1-.1-.141.406.406,0,0,1,.371-.571.415.415,0,0,1-.274-.719l24.725-22.42a.418.418,0,0,1,.556,0l24.725,22.42a.827.827,0,0,0,.089,1.319Z" transform="translate(-582.036 -173.618)" fill="none" stroke="#a9f" stroke-miterlimit="10" stroke-width="1"/>
      </g>
    </g>
  </g>
</svg>
