<svg xmlns="http://www.w3.org/2000/svg" width="63.401" height="51.87" viewBox="0 0 63.401 51.87">
  <g id="Group_216" data-name="Group 216" transform="translate(-167.209 -1921.146)">
    <rect id="Rectangle_175" data-name="Rectangle 175" width="26.632" height="40.87" transform="translate(178.209 1921.146)" fill="#d0c7ff"/>
    <rect id="Rectangle_150" data-name="Rectangle 150" width="26.632" height="40.87" transform="translate(168.209 1931.146)" fill="none" stroke="#a9f" stroke-miterlimit="10" stroke-width="2"/>
    <rect id="Rectangle_151" data-name="Rectangle 151" width="26.632" height="7.436" transform="translate(168.209 1964.58)" fill="none" stroke="#a9f" stroke-miterlimit="10" stroke-width="2"/>
    <path id="Path_101" data-name="Path 101" d="M93.7,74.825l6.235,6.345s-6.39,5.566-9.159,1.6C88.345,79.294,93.7,74.825,93.7,74.825Z" transform="translate(95.975 1880.73)" fill="#f1f2ff" stroke="#a9f" stroke-miterlimit="10" stroke-width="2"/>
    <path id="Path_102" data-name="Path 102" d="M94.975,66.4s6.566-4.8,5.794-23.451c0,0,.662,13.022,22.071,23.451,0,0-16.443.166-21.63,6.345Z" transform="translate(94.698 1889.154)" fill="#f1f2ff" stroke="#a9f" stroke-miterlimit="10" stroke-width="2"/>
    <ellipse id="Ellipse_59" data-name="Ellipse 59" cx="6.994" cy="18.851" rx="6.994" ry="18.851" transform="translate(191.078 1932.078) rotate(-42.494)" fill="none" stroke="#a9f" stroke-miterlimit="10" stroke-width="2"/>
    <path id="Path_103" data-name="Path 103" d="M125,29.2s2.649,2.391,4.929,2.759c0,0-2.906,5.812-6.29,6.4C123.635,38.356,125.511,33.354,125,29.2Z" transform="translate(87.123 1892.789)" fill="#a9f"/>
    <path id="Path_104" data-name="Path 104" d="M147.327,51.129s-2.391-2.649-2.759-4.929c0,0-5.812,2.906-6.4,6.29C138.168,52.49,143.171,50.614,147.327,51.129Z" transform="translate(83.282 1888.295)" fill="#a9f"/>
    <path id="Path_105" data-name="Path 105" d="M133.05,42.3a8.521,8.521,0,0,0,3.6-7.946s4.377.257,5.371,5.518C142.026,39.868,139.635,39.39,133.05,42.3Z" transform="translate(84.635 1891.427)" fill="#a9f"/>
    <path id="Path_106" data-name="Path 106" d="M103.45,83.116l6.217,6.29,4.267-3.265-9.569-3.956Z" transform="translate(92.458 1878.785)" fill="none" stroke="#a9f" stroke-miterlimit="10" stroke-width="2"/>
    <path id="Path_107" data-name="Path 107" d="M92.432,41.647H65.8v4.821h7.412a.754.754,0,0,1,.754.754V48.8a.754.754,0,0,0,.754.754h7.725A.754.754,0,0,0,83.2,48.8V47.222a.754.754,0,0,1,.754-.754h8.479Z" transform="translate(102.409 1889.499)" fill="none" stroke="#a9f" stroke-miterlimit="10" stroke-width="2"/>
    <ellipse id="Ellipse_60" data-name="Ellipse 60" cx="3.305" cy="4.57" rx="3.305" ry="4.57" transform="translate(200.493 1942.608) rotate(-42.494)" fill="#a9f"/>
    <circle id="Ellipse_61" data-name="Ellipse 61" cx="1.545" cy="1.545" r="1.545" transform="translate(179.759 1966.866)" fill="#a9f"/>
    <rect id="Rectangle_152" data-name="Rectangle 152" width="6.732" height="1.435" rx="0.287" transform="translate(172.733 1945.568)" fill="#a9f"/>
    <rect id="Rectangle_153" data-name="Rectangle 153" width="6.732" height="1.435" rx="0.287" transform="translate(183.98 1945.568)" fill="#a9f"/>
  </g>
</svg>
