<svg xmlns="http://www.w3.org/2000/svg" width="289.675" height="63.2" viewBox="0 0 289.675 63.2">
  <g id="Group_138" data-name="Group 138" transform="translate(-542.755 -32.357)">
    <path id="Path_83" data-name="Path 83" d="M561.679,78.924A3.451,3.451,0,0,0,559.332,78h-1.2A2.594,2.594,0,0,1,556,75.874V61.005h2.828a3.465,3.465,0,0,0,3.455-3.455h0a3.465,3.465,0,0,0-3.455-3.455H556v-4.7a3.905,3.905,0,1,0-7.811,0v4.7h-1.979a3.465,3.465,0,0,0-3.454,3.455h0a3.465,3.465,0,0,0,3.454,3.455h1.979V77.913a6.371,6.371,0,0,0,.493,2.462,7.126,7.126,0,0,0,6.654,4.556h4a3.475,3.475,0,0,0,3.465-3.465,3.44,3.44,0,0,0-.555-1.875,3.5,3.5,0,0,0-.563-.668Zm67.409-7.955H614.051c3.147,10.584,12.065,6.952,15.611,5.378,1.291-.573,4.192.872,3.844,3.28s-3.462,3.462-3.462,3.462a23.176,23.176,0,0,1-8.761,1.439c-8.757-.341-15-7.113-15.264-16,.265-8.883,7-16,15.28-16,12.876,0,20.139,18.434,11.414,18.434Zm0-5.378c-.652-3.83-3.808-6.937-7.518-6.937a7.928,7.928,0,0,0-7.518,6.937Zm24.92,13.333A3.451,3.451,0,0,0,651.661,78h-1.2a2.594,2.594,0,0,1-2.135-2.128V61.005h2.828a3.464,3.464,0,0,0,3.454-3.455h0a3.464,3.464,0,0,0-3.454-3.455h-2.828v-4.7a3.905,3.905,0,1,0-7.811,0v4.7h-1.979a3.465,3.465,0,0,0-3.455,3.455h0a3.465,3.465,0,0,0,3.455,3.455h1.979V77.913a6.369,6.369,0,0,0,.492,2.462,7.126,7.126,0,0,0,6.655,4.556h4a3.461,3.461,0,0,0,2.347-6.008ZM579.494,56.987v23.5a3.905,3.905,0,0,0,7.811,0V76.56l3.492-4.006.527.727,6.889,9.487a3.782,3.782,0,0,0,6.12-4.444l-7.91-10.894,7.077-8.119a3.5,3.5,0,0,0-5.277-4.6l-6.02,6.907-4.9,5.62V45.857a3.905,3.905,0,0,0-7.811-.008V56.987Zm-9.535-4.224h0a3.916,3.916,0,0,1,3.905,3.905V79.858a3.917,3.917,0,0,1-3.905,3.906h0a3.917,3.917,0,0,1-3.905-3.906V56.667A3.916,3.916,0,0,1,569.959,52.762Z" transform="translate(0 -4.926)" fill="#dcdcdc" fill-rule="evenodd"/>
    <path id="Path_84" data-name="Path 84" d="M932.9,79.5c0-6.1,4.55-11.049,10.162-11.049a9.462,9.462,0,0,1,4.549,1.166,10.209,10.209,0,0,1,2.278,1.7l.065.022a2.5,2.5,0,0,0,3-3.6.672.672,0,0,1-.038-.079,15.469,15.469,0,0,0-2.045-1.628,14.834,14.834,0,0,0-8.254-2.507c-8.474,0-15.342,7.152-15.342,15.976s6.869,15.975,15.342,15.975a14.808,14.808,0,0,0,7.622-2.108,15.451,15.451,0,0,0,2.759-2.1l.018-.036a2.5,2.5,0,0,0-3.271-3.4,10.375,10.375,0,0,1-.994.832l0,0a.229.229,0,0,1-.113.08,9.9,9.9,0,0,1-1.8,1.02,9.422,9.422,0,0,1-3.767.784c-5.612,0-10.162-4.947-10.162-11.049Zm60.98-10.822V66.755a2.68,2.68,0,0,0-5.36,0V92.239a2.68,2.68,0,0,0,5.36,0V72.57c3.573-4.026,10.022-7.076,12.337,0V92.239a2.68,2.68,0,1,0,5.359,0V72.57c5.232-5.253,10.055-5.838,12.894,0V92.239a2.68,2.68,0,1,0,5.36,0V70.767a8.983,8.983,0,0,0-4.3-6.143c-4.25-2.293-10.35-.294-13.954,4.728a8.993,8.993,0,0,0-.944-2.038c-3.333-5.276-11.372-4.519-16.752,1.367Zm-23.351-5.154c8.474,0,15.342,7.152,15.342,15.976S979,95.477,970.531,95.477,955.189,88.325,955.189,79.5s6.869-15.976,15.342-15.976Zm-.07,4.927c-5.29,0-9.578,4.947-9.578,11.049s4.288,11.049,9.578,11.049,9.578-4.947,9.578-11.049S975.751,68.453,970.461,68.453Z" transform="translate(-197.402 -16.002)" fill="#dcdcdc" fill-rule="evenodd"/>
    <circle id="Ellipse_58" data-name="Ellipse 58" cx="31.6" cy="31.6" r="31.6" transform="translate(660.906 32.357)" fill="#dcdcdc"/>
  </g>
</svg>
