<svg xmlns="http://www.w3.org/2000/svg" width="50" height="50" viewBox="0 0 50 50">
  <g id="Group_227" data-name="Group 227" transform="translate(-189 -6177)">
    <path id="Icon_awesome-twitter" data-name="Icon awesome-twitter" d="M18.8,7.623c.013.186.013.372.013.558A12.136,12.136,0,0,1,6.6,20.4,12.137,12.137,0,0,1,0,18.473a8.885,8.885,0,0,0,1.037.053,8.6,8.6,0,0,0,5.332-1.835,4.3,4.3,0,0,1-4.016-2.979,5.416,5.416,0,0,0,.811.066,4.543,4.543,0,0,0,1.13-.146A4.3,4.3,0,0,1,.851,9.418V9.365a4.326,4.326,0,0,0,1.941.545,4.3,4.3,0,0,1-1.33-5.744A12.208,12.208,0,0,0,10.319,8.66a4.849,4.849,0,0,1-.106-.984,4.3,4.3,0,0,1,7.433-2.939A8.456,8.456,0,0,0,20.371,3.7a4.283,4.283,0,0,1-1.888,2.367A8.61,8.61,0,0,0,20.956,5.4,9.233,9.233,0,0,1,18.8,7.623Z" transform="translate(203.331 6190.109)" fill="#633bfb"/>
    <g id="Ellipse_16" data-name="Ellipse 16" transform="translate(189 6177)" fill="none" stroke="#faf9fe" stroke-width="5">
      <circle cx="25" cy="25" r="25" stroke="none"/>
      <circle cx="25" cy="25" r="22.5" fill="none"/>
    </g>
  </g>
</svg>
